<svg width="24" height="24" viewBox="0 0 24 24" fill="none" xmlns="http://www.w3.org/2000/svg">
<path d="M5 20.3806V3.61943C5 3.16059 5.15802 2.77598 5.47407 2.46559C5.79012 2.1552 6.15885 2 6.58025 2C6.71193 2 6.85021 2.02024 6.99506 2.06073C7.13992 2.10121 7.27819 2.16194 7.40988 2.24291L20.2889 10.6235C20.5259 10.7854 20.7037 10.9879 20.8222 11.2308C20.9407 11.4737 21 11.7301 21 12C21 12.2699 20.9407 12.5263 20.8222 12.7692C20.7037 13.0121 20.5259 13.2146 20.2889 13.3765L7.40988 21.7571C7.27819 21.8381 7.13992 21.8988 6.99506 21.9393C6.85021 21.9798 6.71193 22 6.58025 22C6.15885 22 5.79012 21.8448 5.47407 21.5344C5.15802 21.224 5 20.8394 5 20.3806Z" fill="#E3E3E3"/>
</svg>
