<svg width="14" height="18" viewBox="0 0 14 18" fill="none" xmlns="http://www.w3.org/2000/svg">
<path d="M0 16.5425V1.45749C0 1.04453 0.138272 0.698381 0.414815 0.419028C0.691358 0.139676 1.01399 0 1.38272 0C1.49794 0 1.61893 0.0182186 1.74568 0.0546559C1.87243 0.0910931 1.99342 0.145749 2.10864 0.218623L13.3778 7.76113C13.5852 7.90688 13.7407 8.08907 13.8444 8.30769C13.9481 8.52632 14 8.75708 14 9C14 9.24291 13.9481 9.47368 13.8444 9.69231C13.7407 9.91093 13.5852 10.0931 13.3778 10.2389L2.10864 17.7814C1.99342 17.8542 1.87243 17.9089 1.74568 17.9453C1.61893 17.9818 1.49794 18 1.38272 18C1.01399 18 0.691358 17.8603 0.414815 17.581C0.138272 17.3016 0 16.9555 0 16.5425Z" fill="#E3E3E3"/>
</svg>
