<svg width="24" height="24" viewBox="0 0 24 24" fill="none" xmlns="http://www.w3.org/2000/svg">
<path d="M6 19.5425V4.45749C6 4.04453 6.13827 3.69838 6.41481 3.41903C6.69136 3.13968 7.01399 3 7.38272 3C7.49794 3 7.61893 3.01822 7.74568 3.05466C7.87243 3.09109 7.99342 3.14575 8.10864 3.21862L19.3778 10.7611C19.5852 10.9069 19.7407 11.0891 19.8444 11.3077C19.9481 11.5263 20 11.7571 20 12C20 12.2429 19.9481 12.4737 19.8444 12.6923C19.7407 12.9109 19.5852 13.0931 19.3778 13.2389L8.10864 20.7814C7.99342 20.8542 7.87243 20.9089 7.74568 20.9453C7.61893 20.9818 7.49794 21 7.38272 21C7.01399 21 6.69136 20.8603 6.41481 20.581C6.13827 20.3016 6 19.9555 6 19.5425Z" fill="currentColor"/>
</svg>
