<svg width="24" height="24" viewBox="0 0 24 24" fill="none" xmlns="http://www.w3.org/2000/svg">
<path d="M14.6148 3.45736C15.1247 4.11683 15.4297 4.95113 15.4297 5.8587C15.4297 6.76627 15.1247 7.60186 14.6135 8.26004L18.3651 13.8327C18.6276 13.7719 18.8988 13.7415 19.1788 13.7415C20.0281 13.7413 20.8523 14.0378 21.5164 14.5822C22.1806 15.1267 22.6454 15.8869 22.8347 16.7384C23.024 17.59 22.9266 18.4824 22.5585 19.2696C22.1903 20.0568 21.5733 20.6921 20.8083 21.0716C20.0433 21.4511 19.1757 21.5522 18.3476 21.3585C17.5194 21.1647 16.7798 20.6875 16.2497 20.005C15.7196 19.3225 15.4305 18.4752 15.4297 17.6016C15.4289 16.7281 15.7165 15.8802 16.2453 15.1967L12.4925 9.624C11.9566 9.7465 11.4011 9.7465 10.8652 9.624L7.68319 15.1042C8.2341 15.8159 8.52264 16.705 8.49781 17.6144C8.47297 18.5238 8.13637 19.3949 7.54748 20.0737C6.9586 20.7525 6.15535 21.1954 5.27971 21.324C4.40407 21.4526 3.51241 21.2587 2.76234 20.7765C2.01226 20.2943 1.45206 19.555 1.18075 18.6891C0.909439 17.8232 0.944479 16.8865 1.27969 16.0447C1.61489 15.2028 2.22868 14.5099 3.01256 14.0884C3.79644 13.667 4.69995 13.5441 5.56339 13.7415L8.74535 8.26004C8.26195 7.63615 7.97855 6.87343 7.93422 6.07697C7.88988 5.28051 8.08679 4.4895 8.49782 3.81295C8.90884 3.1364 9.51374 2.60759 10.2292 2.2994C10.9446 1.99121 11.7354 1.9188 12.4925 2.09215C13.2496 2.2655 14.1048 2.79789 14.6148 3.45736Z" fill="#E3E3E3"/>
</svg>
