<svg width="24" height="24" viewBox="0 0 24 24" fill="none" xmlns="http://www.w3.org/2000/svg">
<path d="M14.9351 4.45736C15.445 5.11683 15.75 5.95113 15.75 6.8587C15.75 7.76627 15.445 8.60186 14.9338 9.26004L17.4361 13.3775C17.6986 13.3167 17.9698 13.2863 18.2498 13.2863C19.0991 13.2861 19.9233 13.5826 20.5874 14.127C21.2516 14.6715 21.7164 15.4317 21.9057 16.2832C22.095 17.1348 21.9976 18.0272 21.6295 18.8144C21.2613 19.6016 20.6443 20.2369 19.8793 20.6164C19.1143 20.9959 18.2467 21.097 17.4186 20.9033C16.5904 20.7095 15.8508 20.2323 15.3207 19.5498C14.7906 18.8673 14.5015 18.02 14.5007 17.1464C14.4999 16.2729 14.7875 15.425 15.3163 14.7415L12.8128 10.624C12.2769 10.7465 11.7214 10.7465 11.1855 10.624L8.68319 14.7415C9.2341 15.4532 9.52264 16.3423 9.49781 17.2517C9.47297 18.1611 9.13637 19.0322 8.54748 19.711C7.9586 20.3898 7.15535 20.8327 6.27971 20.9613C5.40407 21.0899 4.51241 20.896 3.76234 20.4138C3.01226 19.9316 2.45206 19.1923 2.18075 18.3264C1.90944 17.4605 1.94448 16.5238 2.27969 15.682C2.61489 14.8401 3.22868 14.1472 4.01256 13.7257C4.79644 13.3043 5.69995 13.1814 6.56339 13.3788L9.06565 9.26004C8.58225 8.63615 8.29885 7.87343 8.25452 7.07697C8.21018 6.28051 8.40709 5.4895 8.81812 4.81295C9.22914 4.1364 9.83404 3.60759 10.5495 3.2994C11.2649 2.99121 12.0557 2.9188 12.8128 3.09215C13.5699 3.2655 14.4251 3.79789 14.9351 4.45736Z" fill="#E3E3E3"/>
</svg>
