<?xml version="1.0" encoding="utf-8"?>
<svg xmlns="http://www.w3.org/2000/svg" height="24px" viewBox="0 -960 960 960" width="24px" fill="currentColor">
  <path d="M 285.102 -130.2 L 285.102 -345.47 L 233.129 -345.47 C 204.544 -345.47 180.074 -356 159.718 -377.09 C 139.361 -398.16 129.184 -423.49 129.184 -453.1 L 129.184 -560.72 C 129.184 -590.32 139.361 -615.66 159.718 -636.74 C 180.074 -657.82 204.544 -668.36 233.129 -668.36 L 441.02 -668.36 L 700.885 -829.8 L 700.885 -184.03 L 441.02 -345.47 L 389.048 -345.47 L 389.048 -130.2 L 285.102 -130.2 Z M 596.94 -375.06 L 596.94 -638.75 L 469.606 -560.72 L 233.129 -560.72 L 233.129 -453.1 L 469.606 -453.1 L 596.94 -375.06 Z M 752.858 -326.63 L 752.858 -687.2 C 776.245 -665.67 795.086 -639.43 809.377 -608.49 C 823.67 -577.54 830.817 -543.68 830.817 -506.91 C 830.817 -470.14 823.67 -436.28 809.377 -405.33 C 795.086 -374.4 776.245 -348.16 752.858 -326.63 Z" style=""/>
</svg>